HIERARCHY
ROOT hip
{
  OFFSET 5.51535 103.731 -2.80141
  CHANNELS 6 Xposition Yposition Zposition Zrotation Xrotation Yrotation
  JOINT abdomen
  {
    OFFSET 0 -1.186 -1.5018
    CHANNELS 6 Xposition Yposition Zposition Zrotation Xrotation Yrotation
    JOINT abdomen2
    {
      OFFSET 0 9.964 0.2134
      CHANNELS 6 Xposition Yposition Zposition Zrotation Xrotation Yrotation
      JOINT chest
      {
        OFFSET 0 13.134 -3.2573
        CHANNELS 6 Xposition Yposition Zposition Zrotation Xrotation Yrotation
        JOINT neck
        {
          OFFSET 0 20.686 -1.6905
          CHANNELS 6 Xposition Yposition Zposition Zrotation Xrotation Yrotation
          JOINT head
          {
            OFFSET 0 7.23801 -0.1237
            CHANNELS 6 Xposition Yposition Zposition Zrotation Xrotation Yrotation
            End Site
            {
              OFFSET 0 0 0
            }
          }
        }
        JOINT lCollar
        {
          OFFSET 1.7069 20.075 5.0056
          CHANNELS 6 Xposition Yposition Zposition Zrotation Xrotation Yrotation
          JOINT lShldr
          {
            OFFSET 13.6458 -0.0470195 -4.849
            CHANNELS 6 Xposition Yposition Zposition Zrotation Xrotation Yrotation
            JOINT lForeArm
            {
              OFFSET 28.3255 -0.97589 2.2888
              CHANNELS 6 Xposition Yposition Zposition Zrotation Xrotation Yrotation
              JOINT lHand
              {
                OFFSET 22.1583 -0.529998 10.8316
                CHANNELS 6 Xposition Yposition Zposition Zrotation Xrotation Yrotation
                JOINT lThumb1
                {
                  OFFSET 0.786 0.111997 2.5817
                  CHANNELS 6 Xposition Yposition Zposition Zrotation Xrotation Yrotation
                  JOINT lThumb2
                  {
                    OFFSET 0.360097 -0.877999 4.2331
                    CHANNELS 6 Xposition Yposition Zposition Zrotation Xrotation Yrotation
                    JOINT lThumb2_End
                    {
                      OFFSET 1.8127 -1.21601 2.2227
                      CHANNELS 6 Xposition Yposition Zposition Zrotation Xrotation Yrotation
                      End Site
                      {
                        OFFSET 0.0180981 -0.012195 0.0222007
                      }
                    }
                  }
                }
                JOINT lCarpal1
                {
                  OFFSET 0.9571 1.114 1.7695
                  CHANNELS 6 Xposition Yposition Zposition Zrotation Xrotation Yrotation
                  JOINT lIndex1
                  {
                    OFFSET 4.12461 0.486992 4.1451
                    CHANNELS 6 Xposition Yposition Zposition Zrotation Xrotation Yrotation
                    JOINT lIndex2
                    {
                      OFFSET 3.4052 -1.45401 2.7682
                      CHANNELS 6 Xposition Yposition Zposition Zrotation Xrotation Yrotation
                      JOINT lIndex2_End
                      {
                        OFFSET 1.45309 -1.79499 1.2713
                        CHANNELS 6 Xposition Yposition Zposition Zrotation Xrotation Yrotation
                        End Site
                        {
                          OFFSET 0.0144979 -0.0179083 0.0126995
                        }
                      }
                    }
                  }
                  JOINT lMid1
                  {
                    OFFSET 5.6954 0.209987 2.1184
                    CHANNELS 6 Xposition Yposition Zposition Zrotation Xrotation Yrotation
                    JOINT lMid2
                    {
                      OFFSET 3.9766 -1.53999 2.3863
                      CHANNELS 6 Xposition Yposition Zposition Zrotation Xrotation Yrotation
                      JOINT lMid2_End
                      {
                        OFFSET 1.4042 -1.926 1.125
                        CHANNELS 6 Xposition Yposition Zposition Zrotation Xrotation Yrotation
                        End Site
                        {
                          OFFSET 0.013999 -0.0193044 0.011301
                        }
                      }
                    }
                  }
                }
                JOINT lCarpal2
                {
                  OFFSET 2.0956 0.66 -0.3894
                  CHANNELS 6 Xposition Yposition Zposition Zrotation Xrotation Yrotation
                  JOINT lRing1
                  {
                    OFFSET 5.0395 -0.090013 2.4971
                    CHANNELS 6 Xposition Yposition Zposition Zrotation Xrotation Yrotation
                    JOINT lRing2
                    {
                      OFFSET 3.7921 -1.55199 1.4806
                      CHANNELS 6 Xposition Yposition Zposition Zrotation Xrotation Yrotation
                      JOINT lRing2_End
                      {
                        OFFSET 1.4655 -1.808 0.9609
                        CHANNELS 6 Xposition Yposition Zposition Zrotation Xrotation Yrotation
                        End Site
                        {
                          OFFSET 0.0147015 -0.0181014 0.00959957
                        }
                      }
                    }
                  }
                  JOINT lPinky1
                  {
                    OFFSET 4.9141 -1.269 0.3591
                    CHANNELS 6 Xposition Yposition Zposition Zrotation Xrotation Yrotation
                    JOINT lPinky2
                    {
                      OFFSET 3.1477 -1.685 0.8462
                      CHANNELS 6 Xposition Yposition Zposition Zrotation Xrotation Yrotation
                      JOINT lPinky2_End
                      {
                        OFFSET 0.805498 -1.58501 0.795499
                        CHANNELS 6 Xposition Yposition Zposition Zrotation Xrotation Yrotation
                        End Site
                        {
                          OFFSET 0.00809703 -0.0157944 0.00799848
                        }
                      }
                    }
                  }
                }
              }
            }
          }
        }
        JOINT rCollar
        {
          OFFSET -1.7069 20.075 5.0056
          CHANNELS 6 Xposition Yposition Zposition Zrotation Xrotation Yrotation
          JOINT rShldr
          {
            OFFSET -13.6458 -0.0470107 -4.849
            CHANNELS 6 Xposition Yposition Zposition Zrotation Xrotation Yrotation
            JOINT rForeArm
            {
              OFFSET -28.3255 -0.975895 2.2888
              CHANNELS 6 Xposition Yposition Zposition Zrotation Xrotation Yrotation
              JOINT rHand
              {
                OFFSET -22.1583 -0.530007 10.8316
                CHANNELS 6 Xposition Yposition Zposition Zrotation Xrotation Yrotation
                JOINT rThumb1
                {
                  OFFSET -0.785997 0.112005 2.5817
                  CHANNELS 6 Xposition Yposition Zposition Zrotation Xrotation Yrotation
                  JOINT rThumb2
                  {
                    OFFSET -0.360106 -0.877994 4.2331
                    CHANNELS 6 Xposition Yposition Zposition Zrotation Xrotation Yrotation
                    JOINT rThumb2_End
                    {
                      OFFSET -1.8127 -1.216 2.2227
                      CHANNELS 6 Xposition Yposition Zposition Zrotation Xrotation Yrotation
                      End Site
                      {
                        OFFSET -0.0180972 -0.0121973 0.0222005
                      }
                    }
                  }
                }
                JOINT rCarpal1
                {
                  OFFSET -0.9571 1.114 1.7695
                  CHANNELS 6 Xposition Yposition Zposition Zrotation Xrotation Yrotation
                  JOINT rIndex1
                  {
                    OFFSET -4.1246 0.487011 4.1451
                    CHANNELS 6 Xposition Yposition Zposition Zrotation Xrotation Yrotation
                    JOINT rIndex2
                    {
                      OFFSET -3.4052 -1.45401 2.7682
                      CHANNELS 6 Xposition Yposition Zposition Zrotation Xrotation Yrotation
                      JOINT rIndex2_End
                      {
                        OFFSET -1.4531 -1.795 1.2713
                        CHANNELS 6 Xposition Yposition Zposition Zrotation Xrotation Yrotation
                        End Site
                        {
                          OFFSET -0.0145077 -0.0180048 0.0127017
                        }
                      }
                    }
                  }
                  JOINT rMid1
                  {
                    OFFSET -5.6954 0.210002 2.1184
                    CHANNELS 6 Xposition Yposition Zposition Zrotation Xrotation Yrotation
                    JOINT rMid2
                    {
                      OFFSET -3.9766 -1.54 2.3863
                      CHANNELS 6 Xposition Yposition Zposition Zrotation Xrotation Yrotation
                      JOINT rMid2_End
                      {
                        OFFSET -1.4042 -1.926 1.125
                        CHANNELS 6 Xposition Yposition Zposition Zrotation Xrotation Yrotation
                        End Site
                        {
                          OFFSET -0.0139948 -0.0192916 0.0112994
                        }
                      }
                    }
                  }
                }
                JOINT rCarpal2
                {
                  OFFSET -2.0956 0.66 -0.3894
                  CHANNELS 6 Xposition Yposition Zposition Zrotation Xrotation Yrotation
                  JOINT rRing1
                  {
                    OFFSET -5.03951 -0.0899879 2.4971
                    CHANNELS 6 Xposition Yposition Zposition Zrotation Xrotation Yrotation
                    JOINT rRing2
                    {
                      OFFSET -3.7921 -1.55201 1.4806
                      CHANNELS 6 Xposition Yposition Zposition Zrotation Xrotation Yrotation
                      JOINT rRing2_End
                      {
                        OFFSET -1.4655 -1.808 0.960901
                        CHANNELS 6 Xposition Yposition Zposition Zrotation Xrotation Yrotation
                        End Site
                        {
                          OFFSET -0.0146934 -0.0180999 0.00959832
                        }
                      }
                    }
                  }
                  JOINT rPinky1
                  {
                    OFFSET -4.91411 -1.26899 0.359202
                    CHANNELS 6 Xposition Yposition Zposition Zrotation Xrotation Yrotation
                    JOINT rPinky2
                    {
                      OFFSET -3.14769 -1.68501 0.846199
                      CHANNELS 6 Xposition Yposition Zposition Zrotation Xrotation Yrotation
                      JOINT rPinky2_End
                      {
                        OFFSET -0.805498 -1.585 0.7955
                        CHANNELS 6 Xposition Yposition Zposition Zrotation Xrotation Yrotation
                        End Site
                        {
                          OFFSET -0.00810035 -0.0158035 0.00800029
                        }
                      }
                    }
                  }
                }
              }
            }
          }
        }
      }
    }
  }
  JOINT lThigh
  {
    OFFSET 8.367 -8.2066 0.5982
    CHANNELS 6 Xposition Yposition Zposition Zrotation Xrotation Yrotation
    JOINT lShin
    {
      OFFSET 2.1923 -43.463 -0.4932
      CHANNELS 6 Xposition Yposition Zposition Zrotation Xrotation Yrotation
      JOINT lFoot
      {
        OFFSET 0.733301 -45.8593 -2.6451
        CHANNELS 6 Xposition Yposition Zposition Zrotation Xrotation Yrotation
        End Site
        {
          OFFSET 2.6618 -4.2699 12.3931
        }
      }
    }
  }
  JOINT rThigh
  {
    OFFSET -8.367 -8.2066 0.5982
    CHANNELS 6 Xposition Yposition Zposition Zrotation Xrotation Yrotation
    JOINT rShin
    {
      OFFSET -2.1923 -43.463 -0.4931
      CHANNELS 6 Xposition Yposition Zposition Zrotation Xrotation Yrotation
      JOINT rFoot
      {
        OFFSET -0.733299 -45.8593 -2.6451
        CHANNELS 6 Xposition Yposition Zposition Zrotation Xrotation Yrotation
        End Site
        {
          OFFSET -2.6618 -4.2699 12.3931
        }
      }
    }
  }
}
MOTION
Frames:	4
Frame Time:	0.0333333
1.32513 70.6353 -3.16818 -3.33875 6.55382 -4.32423 -2.6036e-007 -1.18599 -1.5018 2.5528 3.31103 -2.24831 8.12444e-009 9.964 0.2134 5.24676 6.51575 -4.65371 -6.00574e-008 13.134 -3.2573 5.24676 6.51575 -4.65371 -6.6623e-006 20.686 -1.69049 4.77818 -3.18603 -28.9337 -2.39688e-006 7.23804 -0.123696 10.5407 0.141061 -26.1818 1.7069 20.075 5.0056 9.62099 -1.86336 6.25518 13.6458 -0.0470182 -4.849 -47.7366 -10.2124 54.1319 28.3255 -0.975896 2.28881 -31.2465 20.8457 -95.0826 22.1583 -0.529984 10.8316 9.35197 38.037 -20.613 0.786003 0.111998 2.5817 -8.38651 1.76873 4.89216 0.360098 -0.877998 4.2331 3.61852 0.650315 6.67797 1.8127 -1.21601 2.2227 7.50403 1.85231 14.0024 0.9571 1.114 1.7695 3.18055e-015 -3.18055e-015 -0 4.1246 0.486992 4.1451 0.0633918 17.7802 10.3298 3.4052 -1.454 2.7682 3.96499 -1.82402 -1.5689 1.4531 -1.79499 1.2713 -1.40076 0.612701 0.578968 5.6954 0.209984 2.1184 11.7512 5.36139 0.914529 3.9766 -1.53999 2.3863 -12.5022 5.42187 5.69528 1.4042 -1.926 1.125 -13.2985 5.71578 6.08765 2.0956 0.66 -0.3894 3.18055e-015 -3.18055e-015 -0 5.0395 -0.0900104 2.4971 6.41003 -2.88404 5.26591 3.7921 -1.55199 1.4806 -9.62926 4.62516 4.8779 1.4655 -1.808 0.960899 -11.3475 5.34188 5.8053 4.9141 -1.269 0.359102 7.90664 -3.61186 19.5068 3.1477 -1.68501 0.8462 -8.86096 4.61966 4.42747 0.805501 -1.58501 0.795499 -14.0817 6.92001 7.26402 -1.7069 20.075 5.0056 -15.5864 -0.141581 4.07725 -13.6458 -0.0470136 -4.849 40.8619 -16.8877 -11.948 -28.3255 -0.975892 2.28881 27.9827 24.3414 89.6066 -22.1583 -0.530006 10.8316 -67.923 42.421 41.7215 -0.786001 0.112002 2.5817 12.2514 -14.8579 -17.9717 -0.360106 -0.877992 4.2331 -2.96388 3.04174 -9.68684 -1.8127 -1.216 2.2227 -4.93269 5.78291 -17.2848 -0.9571 1.114 1.7695 -0 -1.59028e-015 -0 -4.12461 0.487012 4.1451 29.2898 19.337 -10.9115 -3.4052 -1.45401 2.7682 17.7434 5.39561 -3.33074 -1.4531 -1.795 1.2713 23.8179 6.946 -4.81568 -5.69541 0.209999 2.1184 13.2161 12.4728 -2.28536 -3.9766 -1.54 2.3863 29.9052 9.50921 -6.66647 -1.4042 -1.926 1.125 5.73674 2.11052 -0.892773 -2.0956 0.66 -0.3894 -0 -1.59028e-015 -0 -5.03951 -0.0899881 2.4971 16.7666 4.39382 -11.1325 -3.7921 -1.55201 1.4806 26.6802 9.35936 -7.01356 -1.4655 -1.808 0.9609 3.94442 1.60769 -0.766027 -4.91411 -1.26899 0.359201 18.9624 0.606306 -24.419 -3.1477 -1.68501 0.846198 25.7173 9.89707 -6.55135 -0.8055 -1.585 0.795501 6.9348 3.0009 -1.34129 8.367 -8.2066 0.598201 -72.8805 -78.8902 -85.3937 2.1923 -43.463 -0.493147 -151.701 82.063 162.617 0.733302 -45.8593 -2.64511 -6.70289 6.46126 1.79849 -8.36701 -8.2066 0.598201 37.1738 -84.1489 34.1445 -2.19102 -43.4633 -0.476242 97.2838 74.2016 -93.6867 -0.733289 -45.8593 -2.64511 -10.0843 -5.45809 -12.4267 
1.28791 70.6388 -3.09166 -2.94218 7.0612 -4.59019 2.95537e-007 -1.186 -1.5018 2.49234 3.12441 -2.28388 -1.13166e-007 9.964 0.213399 5.11867 6.14377 -4.71211 9.93489e-008 13.134 -3.2573 5.11867 6.14377 -4.7121 -8.72651e-006 20.6861 -1.6905 5.09717 -2.68228 -28.71 -2.9182e-006 7.23803 -0.123691 10.5848 0.745503 -26.0801 1.7069 20.075 5.0056 9.60689 -1.86791 6.25211 13.6458 -0.0470136 -4.849 -47.1651 -10.0432 55.1389 28.3255 -0.975892 2.28881 -31.2794 21.1191 -94.7826 22.1583 -0.529977 10.8316 9.48114 37.6704 -21.1678 0.786004 0.111996 2.5817 -8.38653 1.76872 4.89216 0.360101 -0.878 4.2331 3.61854 0.650309 6.67797 1.8127 -1.21601 2.2227 7.50404 1.85231 14.0024 0.9571 1.114 1.7695 -3.18055e-015 -1.59028e-015 -0 4.1246 0.486996 4.1451 0.0633898 17.7802 10.3298 3.4052 -1.454 2.7682 3.96498 -1.82402 -1.56893 1.4531 -1.79499 1.2713 -1.40076 0.612705 0.578987 5.69541 0.209988 2.1184 11.7512 5.36138 0.914546 3.9766 -1.54 2.3863 -12.5022 5.42187 5.69527 1.4042 -1.926 1.125 -13.2985 5.7158 6.08765 2.0956 0.66 -0.3894 -3.18055e-015 -1.59028e-015 -0 5.0395 -0.0900113 2.4971 6.41001 -2.88405 5.26591 3.7921 -1.552 1.4806 -9.62926 4.62517 4.8779 1.4655 -1.808 0.960899 -11.3475 5.34188 5.80531 4.9141 -1.269 0.3591 7.90662 -3.61189 19.5068 3.1477 -1.685 0.8462 -8.86096 4.61966 4.42749 0.805496 -1.585 0.795501 -14.0817 6.92001 7.264 -1.7069 20.075 5.0056 -15.5864 -0.141523 4.07723 -13.6458 -0.0470124 -4.849 40.2723 -16.7616 -11.6721 -28.3255 -0.975899 2.2888 28.092 25.137 89.277 -22.1583 -0.529993 10.8316 -67.997 42.2259 41.1466 -0.786002 0.112008 2.5817 12.2514 -14.858 -17.9717 -0.360105 -0.87799 4.2331 -2.96389 3.04173 -9.68685 -1.8127 -1.216 2.2227 -4.93269 5.78292 -17.2848 -0.9571 1.114 1.7695 -3.18055e-015 -7.95139e-016 -0 -4.12461 0.487009 4.1451 29.2898 19.337 -10.9115 -3.4052 -1.45401 2.7682 17.7434 5.3956 -3.33076 -1.4531 -1.795 1.2713 23.8178 6.946 -4.81568 -5.69541 0.210003 2.1184 13.2161 12.4728 -2.28534 -3.9766 -1.54 2.3863 29.9051 9.50919 -6.66649 -1.4042 -1.926 1.125 5.73674 2.11052 -0.892772 -2.0956 0.66 -0.3894 -3.18055e-015 -7.95139e-016 -0 -5.03951 -0.0899846 2.4971 16.7666 4.39382 -11.1325 -3.7921 -1.552 1.4806 26.6802 9.35936 -7.01354 -1.4655 -1.808 0.9609 3.94443 1.60771 -0.766037 -4.91411 -1.26899 0.3592 18.9624 0.606306 -24.419 -3.1477 -1.68501 0.846199 25.7173 9.89708 -6.55134 -0.8055 -1.585 0.795501 6.9348 3.00089 -1.34129 8.367 -8.2066 0.598199 -75.1603 -79.1773 -87.6883 2.1923 -43.463 -0.4931 -151.771 82.0721 162.761 0.733291 -45.8593 -2.6451 -6.29939 6.49443 1.78167 -8.36699 -8.2066 0.598199 42.943 -84.5898 39.8874 -2.19816 -43.4619 -0.565375 97.6589 74.1707 -94.0367 -0.733293 -45.8593 -2.64511 -9.65399 -5.59487 -12.4389 
1.23488 70.6482 -2.98863 -2.21986 7.71056 -5.17084 -9.57653e-008 -1.186 -1.5018 2.44857 2.947 -2.27261 -3.58377e-008 9.964 0.213399 5.02205 5.79175 -4.67839 -2.33501e-007 13.134 -3.2573 5.02205 5.79175 -4.6784 -2.29182e-006 20.686 -1.6905 5.24172 -2.27363 -28.4899 -9.52247e-007 7.23801 -0.123695 10.5368 1.16004 -25.9289 1.7069 20.075 5.0056 9.56575 -1.88127 6.24333 13.6458 -0.047009 -4.849 -46.9294 -9.94124 56.114 28.3255 -0.975894 2.28879 -31.3891 20.9906 -94.0324 22.1583 -0.529987 10.8316 9.54952 37.1731 -22.3658 0.786003 0.111996 2.5817 -8.38655 1.7687 4.89217 0.360101 -0.878 4.2331 3.61853 0.650322 6.67797 1.8127 -1.21601 2.2227 7.50404 1.8523 14.0024 0.9571 1.114 1.7695 3.18055e-015 -1.59028e-015 -6.36111e-015 4.12461 0.486992 4.1451 0.0633933 17.7802 10.3298 3.4052 -1.45401 2.7682 3.96498 -1.82402 -1.56892 1.4531 -1.79499 1.2713 -1.40075 0.612694 0.57899 5.6954 0.209988 2.1184 11.7512 5.36137 0.914531 3.9766 -1.53999 2.3863 -12.5022 5.42187 5.69527 1.4042 -1.926 1.125 -13.2985 5.71578 6.08765 2.0956 0.66 -0.3894 3.18055e-015 -1.59028e-015 -6.36111e-015 5.0395 -0.090012 2.4971 6.41003 -2.88406 5.26592 3.7921 -1.55199 1.4806 -9.62927 4.62515 4.87789 1.4655 -1.80801 0.960899 -11.3475 5.34189 5.8053 4.9141 -1.269 0.359101 7.90663 -3.6119 19.5068 3.1477 -1.685 0.8462 -8.86095 4.61965 4.4275 0.805496 -1.585 0.795499 -14.0817 6.92002 7.26401 -1.7069 20.075 5.0056 -15.5864 -0.141551 4.07724 -13.6458 -0.0470132 -4.849 39.3654 -16.6965 -11.4405 -28.3255 -0.975896 2.2888 28.2022 26.2141 89.5591 -22.1583 -0.530012 10.8316 -68.3757 42.4648 40.4826 -0.786 0.112006 2.5817 12.2515 -14.858 -17.9717 -0.360101 -0.877995 4.2331 -2.96389 3.04174 -9.68687 -1.81269 -1.216 2.2227 -4.93269 5.78292 -17.2848 -0.9571 1.114 1.7695 -4.41391e-032 7.95139e-016 3.18055e-015 -4.12461 0.48701 4.1451 29.2898 19.337 -10.9115 -3.4052 -1.454 2.7682 17.7434 5.3956 -3.33075 -1.4531 -1.795 1.2713 23.8179 6.94602 -4.81569 -5.6954 0.209999 2.1184 13.2161 12.4728 -2.28532 -3.9766 -1.54 2.3863 29.9052 9.50921 -6.66649 -1.4042 -1.926 1.125 5.73673 2.11051 -0.892758 -2.0956 0.66 -0.3894 -4.41391e-032 7.95139e-016 3.18055e-015 -5.03951 -0.0899874 2.4971 16.7666 4.39383 -11.1325 -3.7921 -1.55201 1.4806 26.6802 9.35937 -7.01354 -1.4655 -1.808 0.960901 3.94443 1.6077 -0.766023 -4.91411 -1.26899 0.359201 18.9624 0.606312 -24.419 -3.1477 -1.68501 0.846198 25.7173 9.89708 -6.55133 -0.805501 -1.585 0.7955 6.93481 3.00089 -1.34129 8.36701 -8.20661 0.598201 -78.1983 -79.7952 -90.697 2.19231 -43.463 -0.493377 -151.777 82.0593 162.772 0.733294 -45.8593 -2.64509 -6.11217 6.52177 1.75617 -8.36702 -8.20661 0.598202 52.4501 -84.737 49.3838 -2.19219 -43.4631 -0.49191 97.3878 74.2034 -93.7879 -0.733309 -45.8593 -2.64511 -9.44668 -5.6569 -12.4902 
1.17196 70.6606 -2.86936 -1.26255 8.4449 -5.9841 4.50091e-007 -1.186 -1.5018 2.41728 2.78175 -2.22646 6.30999e-008 9.964 0.2134 4.94952 5.46476 -4.57635 7.52964e-009 13.134 -3.2573 4.94952 5.46476 -4.57636 -8.76886e-006 20.6861 -1.69051 5.25742 -1.9488 -28.2719 -3.94578e-006 7.23801 -0.123696 10.4234 1.43094 -25.741 1.7069 20.075 5.0056 9.49958 -1.90273 6.22907 13.6458 -0.0470133 -4.849 -46.9271 -9.89566 57.0268 28.3255 -0.975893 2.2888 -31.5462 20.5638 -92.9505 22.1583 -0.529984 10.8316 9.5552 36.5771 -23.9974 0.786003 0.111999 2.5817 -8.38653 1.76867 4.89215 0.3601 -0.878001 4.2331 3.61853 0.650315 6.67798 1.8127 -1.21601 2.2227 7.50404 1.85229 14.0025 0.9571 1.114 1.7695 6.36111e-015 3.18055e-015 -6.36111e-015 4.1246 0.486996 4.1451 0.0633711 17.7802 10.3298 3.4052 -1.45401 2.7682 3.96498 -1.82403 -1.56892 1.4531 -1.79499 1.2713 -1.40076 0.612695 0.578989 5.6954 0.209987 2.1184 11.7512 5.36137 0.914545 3.9766 -1.53999 2.3863 -12.5022 5.42184 5.69526 1.4042 -1.926 1.125 -13.2985 5.71579 6.08765 2.0956 0.66 -0.3894 6.36111e-015 3.18055e-015 -6.36111e-015 5.0395 -0.090013 2.4971 6.41001 -2.88408 5.26593 3.7921 -1.55199 1.4806 -9.62927 4.62516 4.8779 1.4655 -1.808 0.960899 -11.3475 5.34188 5.80532 4.9141 -1.269 0.3591 7.90659 -3.61192 19.5069 3.1477 -1.685 0.846201 -8.86097 4.61966 4.4275 0.8055 -1.58501 0.795499 -14.0817 6.92002 7.26402 -1.7069 20.075 5.0056 -15.5864 -0.141499 4.07722 -13.6458 -0.0470082 -4.849 38.2452 -16.6844 -11.2133 -28.3255 -0.975886 2.2888 28.3096 27.4746 90.2795 -22.1583 -0.530007 10.8316 -68.9762 43.0311 39.7627 -0.786002 0.112006 2.5817 12.2515 -14.858 -17.9717 -0.360107 -0.877992 4.2331 -2.9639 3.04174 -9.68684 -1.8127 -1.216 2.2227 -4.9327 5.78293 -17.2848 -0.9571 1.114 1.7695 1.59028e-015 7.95139e-016 -3.18055e-015 -4.12461 0.487008 4.1451 29.2898 19.337 -10.9116 -3.4052 -1.45401 2.7682 17.7434 5.3956 -3.33076 -1.4531 -1.795 1.2713 23.8179 6.94604 -4.81567 -5.6954 0.21 2.1184 13.2161 12.4728 -2.28535 -3.9766 -1.54 2.3863 29.9051 9.50923 -6.66649 -1.4042 -1.926 1.125 5.73675 2.11051 -0.89277 -2.0956 0.66 -0.3894 1.59028e-015 7.95139e-016 -3.18055e-015 -5.03951 -0.0899897 2.4971 16.7666 4.39385 -11.1325 -3.7921 -1.55201 1.4806 26.6802 9.35937 -7.01354 -1.4655 -1.808 0.9609 3.94444 1.6077 -0.766042 -4.91411 -1.26899 0.359203 18.9624 0.606318 -24.419 -3.1477 -1.68501 0.846199 25.7173 9.89709 -6.55133 -0.805501 -1.585 0.7955 6.93481 3.00089 -1.34128 8.36699 -8.20658 0.598198 -82.0796 -80.6331 -94.5285 2.19231 -43.463 -0.492994 -151.708 82.0363 162.656 0.733305 -45.8593 -2.64511 -6.0885 6.54286 1.72255 -8.367 -8.20659 0.598199 66.0536 -84.5996 62.987 -2.1923 -43.463 -0.493082 97.448 74.2396 -93.9588 -0.733294 -45.8593 -2.64511 -9.41129 -5.66078 -12.5685 
